<svg width="30" height="30" viewBox="0 0 30 30" fill="none" xmlns="http://www.w3.org/2000/svg">
<rect width="30" height="30" rx="5" fill="#C4C4C4"/>
<path d="M24.6643 8.53607C24.3394 8.50487 24.0212 8.6294 23.816 8.86814L12.9132 21.0318L7.61078 15.3727C7.38852 15.0875 7.01823 14.9435 6.65246 15.0029C6.28884 15.0606 5.99132 15.3095 5.88563 15.646C5.7797 15.9843 5.88099 16.3514 6.15078 16.5984L12.2135 23.0791C12.4042 23.279 12.676 23.3918 12.9569 23.3896C13.24 23.3858 13.5051 23.2673 13.6863 23.0642L25.3284 10.0971C25.5757 9.83247 25.6418 9.45767 25.5011 9.126C25.3601 8.79615 25.0357 8.56777 24.6643 8.53607Z" fill="white"/>
</svg>
