<svg width="20" height="18" viewBox="0 0 20 18" fill="none" xmlns="http://www.w3.org/2000/svg">
<path d="M18.2905 0H5.06202C4.11797 0 3.35254 0.765433 3.35254 1.70983V2.68208H14.7514C15.6954 2.68208 16.4277 3.41399 16.4277 4.35838L16.5317 10.7514H18.2905C19.2345 10.7514 19.9999 9.98601 19.9999 9.04162V1.70983C19.9999 0.765433 19.2345 0 18.2905 0Z" fill="#767676"/>
<path d="M16.6474 4.22973V11.5619C16.6474 12.5063 15.882 13.2717 14.9379 13.2717H7.63006L4.16185 17.0867V13.2717H1.70948C0.765433 13.2717 0 12.5063 0 11.5622V4.23008C0 3.28568 0.765433 2.52025 1.70948 2.52025H14.9376C15.882 2.52025 16.6474 3.28568 16.6474 4.22973Z" fill="#C4C4C4"/>
<path d="M8.67009 6.34046H3.81459C3.6228 6.34046 3.46777 6.18509 3.46777 5.99364C3.46777 5.8022 3.6228 5.64682 3.81459 5.64682H8.67009C8.86188 5.64682 9.01691 5.8022 9.01691 5.99364C9.01691 6.18509 8.86188 6.34046 8.67009 6.34046Z" fill="white"/>
<path d="M13.1788 8.42138H3.81459C3.6228 8.42138 3.46777 8.266 3.46777 8.07456C3.46777 7.88311 3.6228 7.72774 3.81459 7.72774H13.1788C13.3705 7.72774 13.5256 7.88311 13.5256 8.07456C13.5256 8.266 13.3705 8.42138 13.1788 8.42138Z" fill="white"/>
<path d="M13.1788 10.5023H3.81459C3.6228 10.5023 3.46777 10.3469 3.46777 10.1555C3.46777 9.96405 3.6228 9.80867 3.81459 9.80867H13.1788C13.3705 9.80867 13.5256 9.96405 13.5256 10.1555C13.5256 10.3469 13.3705 10.5023 13.1788 10.5023Z" fill="white"/>
</svg>
