<svg width="35" height="35" viewBox="0 0 35 35" fill="none" xmlns="http://www.w3.org/2000/svg">
<path opacity="0.3" d="M30.625 3.5H25.375V0.875C25.375 0.642936 25.2828 0.420376 25.1187 0.256282C24.9546 0.0921874 24.7321 0 24.5 0C24.2679 0 24.0454 0.0921874 23.8813 0.256282C23.7172 0.420376 23.625 0.642936 23.625 0.875V3.5H11.375V0.875C11.375 0.642936 11.2828 0.420376 11.1187 0.256282C10.9546 0.0921874 10.7321 0 10.5 0C10.2679 0 10.0454 0.0921874 9.88128 0.256282C9.71719 0.420376 9.625 0.642936 9.625 0.875V3.5H4.375C3.2151 3.50139 2.10311 3.96277 1.28294 4.78294C0.462772 5.60311 0.00138938 6.7151 0 7.875V30.625C0.00138938 31.7849 0.462772 32.8969 1.28294 33.7171C2.10311 34.5372 3.2151 34.9986 4.375 35H30.625C31.785 34.9991 32.8973 34.5378 33.7176 33.7176C34.5378 32.8973 34.9991 31.785 35 30.625V7.875C34.9991 6.71496 34.5378 5.6027 33.7176 4.78243C32.8973 3.96216 31.785 3.50093 30.625 3.5V3.5ZM33.25 30.625C33.25 31.3212 32.9734 31.9889 32.4812 32.4812C31.9889 32.9734 31.3212 33.25 30.625 33.25H4.375C3.67881 33.25 3.01113 32.9734 2.51884 32.4812C2.02656 31.9889 1.75 31.3212 1.75 30.625V15.75H33.25V30.625ZM33.25 14H1.75V7.875C1.75 6.426 2.9225 5.25 4.375 5.25H9.625V7.875C9.625 8.10706 9.71719 8.32962 9.88128 8.49372C10.0454 8.65781 10.2679 8.75 10.5 8.75C10.7321 8.75 10.9546 8.65781 11.1187 8.49372C11.2828 8.32962 11.375 8.10706 11.375 7.875V5.25H23.625V7.875C23.625 8.10706 23.7172 8.32962 23.8813 8.49372C24.0454 8.65781 24.2679 8.75 24.5 8.75C24.7321 8.75 24.9546 8.65781 25.1187 8.49372C25.2828 8.32962 25.375 8.10706 25.375 7.875V5.25H30.625C31.3212 5.25 31.9889 5.52656 32.4812 6.01884C32.9734 6.51113 33.25 7.17881 33.25 7.875V14Z" fill="#474348"/>
</svg>
