<svg width="58" height="84" viewBox="0 0 58 84" fill="none" xmlns="http://www.w3.org/2000/svg">
<path d="M29.0004 0C12.984 0 0 13.8926 0 31.0298C0 38.6804 2.18808 43.8876 6.8896 51.0827L29.0004 84L51.1104 51.0818C55.723 43.8876 58 38.6796 58 31.0289C58.0008 13.8926 45.0168 0 29.0004 0ZM29.0004 42.7224C22.4133 42.7224 17.074 37.0094 17.074 29.9614C17.074 22.9134 22.4133 17.2004 29.0004 17.2004C35.5875 17.2004 40.9269 22.9134 40.9269 29.9614C40.9269 37.0094 35.5875 42.7224 29.0004 42.7224Z" fill="#DA3017"/>
<ellipse cx="29" cy="30" rx="12" ry="13" fill="white"/>
</svg>
