<svg width="10" height="12" viewBox="0 0 10 12" fill="none" xmlns="http://www.w3.org/2000/svg">
<g clip-path="url(#clip0_92_1294)">
<path d="M1.46113 8.3754L5.00113 11.6372L8.55814 8.36449C9.01785 7.95043 9.3822 7.45725 9.6299 6.91375C9.8776 6.37025 10.0037 5.78733 10.0008 5.19903C9.99792 4.61073 9.86611 4.02886 9.61309 3.48739C9.36006 2.94592 8.99089 2.45571 8.52713 2.0454C7.5877 1.20438 6.32371 0.730724 5.00524 0.725627C3.68678 0.720531 2.4184 1.1844 1.47113 2.01813C1.00621 2.43214 0.636675 2.92621 0.38409 3.47148C0.131505 4.01675 0.000935941 4.6023 5.01335e-06 5.19395C-0.000925914 5.78559 0.1278 6.37148 0.378668 6.91741C0.629536 7.46333 0.997519 7.95836 1.46113 8.37358M5.76114 4.52722C5.85908 4.61357 5.93696 4.71693 5.99014 4.83116C6.04332 4.9454 6.07072 5.06817 6.07072 5.19222C6.07072 5.31626 6.04332 5.43904 5.99014 5.55327C5.93696 5.6675 5.85908 5.77086 5.76114 5.85722C5.56332 6.03471 5.29657 6.13422 5.01863 6.13422C4.7407 6.13422 4.47395 6.03471 4.27613 5.85722C4.17828 5.77072 4.1005 5.66726 4.04738 5.55296C3.99427 5.43866 3.9669 5.31584 3.9669 5.19176C3.9669 5.06768 3.99427 4.94486 4.04738 4.83056C4.1005 4.71626 4.17828 4.61281 4.27613 4.52631C4.47407 4.34904 4.74078 4.24967 5.01863 4.24967C5.29649 4.24967 5.5632 4.34994 5.76114 4.52722Z" fill="#767676"/>
</g>
<defs>
<clipPath id="clip0_92_1294">
<rect width="10" height="10.91" fill="white" transform="translate(0 0.727295)"/>
</clipPath>
</defs>
</svg>
