<svg width="25" height="26" viewBox="0 0 25 26" fill="none" xmlns="http://www.w3.org/2000/svg">
<path d="M19.6642 3.45605H5.33424C4.20364 3.45605 3.28711 4.37656 3.28711 5.51207V19.9042C3.28711 21.0397 4.20364 21.9602 5.33424 21.9602H19.6642C20.7948 21.9602 21.7113 21.0397 21.7113 19.9042V5.51207C21.7113 4.37656 20.7948 3.45605 19.6642 3.45605Z" stroke="white" stroke-width="1.5" stroke-linecap="round" stroke-linejoin="round"/>
<path d="M8.91719 10.6521C9.76514 10.6521 10.4525 9.96176 10.4525 9.11013C10.4525 8.2585 9.76514 7.56812 8.91719 7.56812C8.06924 7.56812 7.38184 8.2585 7.38184 9.11013C7.38184 9.96176 8.06924 10.6521 8.91719 10.6521Z" stroke="white" stroke-width="1.5" stroke-linecap="round" stroke-linejoin="round"/>
<path d="M21.712 15.7921L16.5942 10.6521L5.33496 21.9602" stroke="white" stroke-width="1.5" stroke-linecap="round" stroke-linejoin="round"/>
</svg>
