<svg width="41" height="41" viewBox="0 0 41 41" fill="none" xmlns="http://www.w3.org/2000/svg">
<ellipse cx="20.4004" cy="20.6085" rx="20" ry="20.0868" fill="#767676"/>
<path d="M27.5297 11.4022H13.2704C12.1454 11.4022 11.2334 12.3181 11.2334 13.448V27.7692C11.2334 28.8991 12.1454 29.815 13.2704 29.815H27.5297C28.6547 29.815 29.5667 28.8991 29.5667 27.7692V13.448C29.5667 12.3181 28.6547 11.4022 27.5297 11.4022Z" stroke="white" stroke-width="1.5" stroke-linecap="round" stroke-linejoin="round"/>
<path d="M16.8354 18.5627C17.6792 18.5627 18.3632 17.8757 18.3632 17.0283C18.3632 16.1809 17.6792 15.4939 16.8354 15.4939C15.9916 15.4939 15.3076 16.1809 15.3076 17.0283C15.3076 17.8757 15.9916 18.5627 16.8354 18.5627Z" stroke="white" stroke-width="1.5" stroke-linecap="round" stroke-linejoin="round"/>
<path d="M29.5668 23.6774L24.4742 18.5627L13.2705 29.815" stroke="white" stroke-width="1.5" stroke-linecap="round" stroke-linejoin="round"/>
</svg>
