<svg width="36" height="22" viewBox="0 0 36 22" fill="none" xmlns="http://www.w3.org/2000/svg">
<path d="M34.5 4.43653C34.5 13.5492 27.1127 20.9365 18 20.9365C8.8873 20.9365 1.5 13.5492 1.5 4.43653C1.5 3.27564 1.62048 2.53278 1.7915 2.07818C1.95044 1.65569 2.11463 1.56945 2.20793 1.53653C2.35981 1.48295 2.6582 1.46431 3.21037 1.62433C3.74827 1.78022 4.39773 2.06636 5.17848 2.45666C5.64285 2.6888 6.15321 2.95835 6.69942 3.24683C7.92281 3.89297 9.32601 4.63407 10.7949 5.26248C12.9516 6.18518 15.3949 6.93661 18 6.93661C20.6051 6.93661 23.0484 6.18518 25.2051 5.26248C26.674 4.63407 28.0772 3.89297 29.3006 3.24683C29.8468 2.95835 30.3572 2.6888 30.8215 2.45666C31.6023 2.06636 32.2517 1.78022 32.7896 1.62433C33.3418 1.46431 33.6402 1.48295 33.7921 1.53653C33.8854 1.56945 34.0496 1.65569 34.2085 2.07818C34.3795 2.53278 34.5 3.27564 34.5 4.43653Z" fill="white" stroke="#D9D9D9" stroke-width="2"/>
<rect width="36" height="8" fill="white"/>
</svg>
